<svg xmlns:dc="http://purl.org/dc/elements/1.1/" xmlns:cc="http://creativecommons.org/ns#" xmlns:rdf="http://www.w3.org/1999/02/22-rdf-syntax-ns#" xmlns:svg="http://www.w3.org/2000/svg" xmlns="http://www.w3.org/2000/svg" xmlns:sodipodi="http://sodipodi.sourceforge.net/DTD/sodipodi-0.dtd" xmlns:inkscape="http://www.inkscape.org/namespaces/inkscape" version="1.1" x="0px" y="0px" viewBox="0 0 100 125"><g transform="translate(0,-952.36218)"><g transform="translate(20.998031,959.86021)"><path style="color:#000000;enable-background:accumulate;" d="m 29.001969,2.50197 c -22.0913903,0 -40,17.9086 -40,40 0,22.0914 17.9086097,40 40,40 22.09139,0 40,-17.9086 40,-40 0,-22.0914 -17.90861,-40 -40,-40 z m -3,11 6,0 c 0,8.6667 0,17.3333 0,26 8.66667,0 17.33333,0 26,0 l 0,6 c -8.66667,0 -17.33333,0 -26,0 0,8.6667 0,17.3333 0,26 l -6,0 c 0,-8.6667 0,-17.3333 0,-26 -8.66667,0 -17.3333303,0 -26,0 l 0,-6 c 8.6666697,0 17.33333,0 26,0 0,-8.6667 0,-17.3333 0,-26 z" fill="#000000" fill-opacity="1" fill-rule="nonzero" stroke="none" marker="none" visibility="visible" display="inline" overflow="visible"/></g></g><text x="0" y="115" fill="#000000" font-size="5px" font-weight="bold" font-family="'Helvetica Neue', Helvetica, Arial-Unicode, Arial, Sans-serif">Created by AFY Studio</text><text x="0" y="120" fill="#000000" font-size="5px" font-weight="bold" font-family="'Helvetica Neue', Helvetica, Arial-Unicode, Arial, Sans-serif">from the Noun Project</text></svg>